<svg width="20" height="20" viewBox="0 0 20 20" fill="none" xmlns="http://www.w3.org/2000/svg">
<g clip-path="url(#clip0_408_20439)">
<path d="M4.72799 6.80391L1.75314 4.20746C1.68496 4.14817 1.6003 4.1107 1.50913 4.09948C1.41797 4.08826 1.32411 4.10375 1.23864 4.14414C1.15317 4.18452 1.07965 4.24811 1.02676 4.3274C0.973868 4.40668 0.943817 4.49836 0.94015 4.5916L0.494138 15.7872C0.491312 15.858 0.5038 15.9278 0.530736 15.9917C0.557673 16.0556 0.598412 16.1121 0.650134 16.1572C0.701855 16.2024 0.763321 16.2351 0.830272 16.2531C0.897224 16.2712 0.96806 16.2741 1.03787 16.2617L12.071 14.3066C12.163 14.2904 12.2498 14.2481 12.3213 14.1849C12.3927 14.1217 12.4458 14.0402 12.4742 13.9499C12.5026 13.8596 12.5051 13.7645 12.4815 13.6756C12.4579 13.5868 12.4092 13.508 12.341 13.4485L9.36615 10.8521C12.8815 6.82443 16.1933 4.67914 19.3003 4.41774C19.3533 4.41325 19.4042 4.39148 19.4454 4.35577C19.4866 4.32005 19.5158 4.27235 19.5285 4.21993C19.5412 4.16752 19.5367 4.11329 19.5157 4.0655C19.4947 4.01772 19.4584 3.97902 19.4123 3.95532C13.8066 1.0603 8.91207 2.01004 4.72799 6.80391ZM4.72799 6.80391L1.75314 4.20746C1.68496 4.14817 1.6003 4.1107 1.50913 4.09948C1.41797 4.08826 1.32411 4.10375 1.23864 4.14414C1.15317 4.18452 1.07965 4.24811 1.02676 4.3274C0.973868 4.40668 0.943817 4.49836 0.94015 4.5916L0.494138 15.7872C0.491312 15.858 0.5038 15.9278 0.530736 15.9917C0.557673 16.0556 0.598412 16.1121 0.650134 16.1572C0.701855 16.2024 0.763321 16.2351 0.830272 16.2531C0.897224 16.2712 0.96806 16.2741 1.03787 16.2617L12.071 14.3066C12.163 14.2904 12.2498 14.2481 12.3213 14.1849C12.3927 14.1217 12.4458 14.0402 12.4742 13.9499C12.5026 13.8596 12.5051 13.7645 12.4815 13.6756C12.4579 13.5868 12.4092 13.508 12.341 13.4485L9.36615 10.8521C12.8815 6.82443 16.1933 4.67914 19.3003 4.41774C19.3533 4.41325 19.4042 4.39148 19.4454 4.35577C19.4866 4.32005 19.5158 4.27235 19.5285 4.21993C19.5412 4.16752 19.5367 4.11329 19.5157 4.0655C19.4947 4.01772 19.4584 3.97902 19.4123 3.95532C13.8066 1.0603 8.91207 2.01004 4.72799 6.80391Z" fill="black"/>
</g>
<defs>
<clipPath id="clip0_408_20439">
<rect width="20" height="20" fill="white"/>
</clipPath>
</defs>
</svg>
