<svg width="518" height="305" viewBox="0 0 518 305" fill="none" xmlns="http://www.w3.org/2000/svg">
<path d="M162.378 223.951C161.316 223.952 160.254 224.016 159.199 224.142C156.335 214.85 147.731 208.499 137.975 208.479C135.547 208.477 133.135 208.878 130.84 209.666C125.158 197.425 111.693 190.773 98.4757 193.676C85.2569 196.58 75.8485 208.255 75.858 221.741C75.8594 224.071 76.1497 226.392 76.7223 228.651C64.1285 230.566 55.1306 241.812 56.0669 254.471C57.0014 267.131 67.5551 276.944 80.2944 277H162.378C177.082 277 189 265.124 189 250.475C189 235.826 177.082 223.951 162.378 223.951ZM162.378 272.579H80.2944C69.3572 272.626 60.4199 263.891 60.2569 252.995C60.0947 242.099 68.7655 233.104 79.6999 232.826C80.0497 232.816 80.3922 232.724 80.6994 232.557C81.0066 232.39 81.2698 232.153 81.4674 231.866C81.6657 231.578 81.7927 231.248 81.838 230.902C81.8832 230.556 81.8454 230.204 81.7277 229.876C77.3243 217.32 83.8744 203.571 96.4222 199.032C108.969 194.492 122.847 200.852 127.555 213.298C127.661 213.583 127.825 213.844 128.037 214.063C128.249 214.282 128.504 214.455 128.787 214.572C129.069 214.688 129.373 214.745 129.678 214.739C129.984 214.732 130.285 214.663 130.562 214.536C132.884 213.46 135.414 212.902 137.975 212.899C146.416 212.915 153.684 218.838 155.37 227.079C155.611 228.277 156.783 229.052 157.984 228.81C159.431 228.521 160.903 228.374 162.378 228.372C174.631 228.372 184.563 238.269 184.563 250.475C184.563 262.683 174.631 272.579 162.378 272.579Z" fill="white" fill-opacity="0.28"/>
<path d="M162.378 272.579H80.2944C69.3572 272.626 60.4199 263.891 60.2569 252.995C60.0947 242.099 68.7655 233.104 79.6999 232.826C80.0497 232.816 80.3922 232.724 80.6994 232.557C81.0066 232.39 81.2698 232.153 81.4674 231.866C81.6657 231.578 81.7927 231.248 81.838 230.902C81.8832 230.556 81.8454 230.204 81.7277 229.876C77.3243 217.32 83.8744 203.571 96.4222 199.032C108.969 194.492 122.847 200.852 127.555 213.298C127.661 213.583 127.825 213.844 128.037 214.063C128.249 214.282 128.504 214.455 128.787 214.572C129.069 214.688 129.373 214.745 129.678 214.739C129.984 214.732 130.285 214.663 130.562 214.536C132.884 213.46 135.414 212.902 137.975 212.899C146.416 212.915 153.684 218.838 155.37 227.079C155.611 228.277 156.783 229.052 157.984 228.81C159.431 228.521 160.903 228.374 162.378 228.372C174.631 228.372 184.563 238.269 184.563 250.475C184.563 262.683 174.631 272.579 162.378 272.579Z" fill="white" fill-opacity="0.28"/>
<path d="M324.622 56.9512C325.684 56.9519 326.746 57.0159 327.801 57.1422C330.665 47.8497 339.269 41.4989 349.025 41.479C351.453 41.4767 353.865 41.8779 356.16 42.6661C361.842 30.4254 375.307 23.7729 388.524 26.6761C401.743 29.5798 411.152 41.255 411.142 54.7405C411.141 57.0706 410.85 59.3915 410.278 61.6506C422.871 63.5663 431.869 74.812 430.933 87.4709C429.999 100.131 419.445 109.944 406.706 110H324.622C309.918 110 298 98.1243 298 83.4751C298 68.8259 309.918 56.9512 324.622 56.9512ZM324.622 105.579H406.706C417.643 105.626 426.58 96.8913 426.743 85.9952C426.905 75.0988 418.235 66.1037 407.3 65.8262C406.95 65.8164 406.608 65.7243 406.301 65.5573C405.993 65.3904 405.73 65.1534 405.533 64.8657C405.334 64.5781 405.207 64.2478 405.162 63.9018C405.117 63.5559 405.155 63.2042 405.272 62.8756C409.676 50.3205 403.126 36.5713 390.578 32.0317C378.031 27.4921 364.153 33.852 359.445 46.2976C359.339 46.5831 359.175 46.8437 358.963 47.0629C358.751 47.2821 358.496 47.4553 358.213 47.5716C357.931 47.6879 357.627 47.7447 357.322 47.7386C357.016 47.7324 356.715 47.6634 356.438 47.5359C354.116 46.4601 351.586 45.9016 349.025 45.8993C340.584 45.9148 333.316 51.8384 331.63 60.0789C331.389 61.277 330.217 62.0516 329.016 61.8095C327.569 61.5205 326.097 61.374 324.622 61.3722C312.369 61.3722 302.437 71.2692 302.437 83.4751C302.437 95.6828 312.369 105.579 324.622 105.579Z" fill="white" fill-opacity="0.28"/>
<path d="M324.622 105.579H406.706C417.643 105.626 426.58 96.8913 426.743 85.9952C426.905 75.0988 418.235 66.1037 407.3 65.8262C406.95 65.8164 406.608 65.7243 406.301 65.5573C405.993 65.3904 405.73 65.1534 405.533 64.8657C405.334 64.5781 405.207 64.2478 405.162 63.9018C405.117 63.5559 405.155 63.2042 405.272 62.8756C409.676 50.3205 403.126 36.5713 390.578 32.0317C378.031 27.4921 364.153 33.852 359.445 46.2976C359.339 46.5831 359.175 46.8437 358.963 47.0629C358.751 47.2821 358.496 47.4553 358.213 47.5716C357.931 47.6879 357.627 47.7447 357.322 47.7386C357.016 47.7324 356.715 47.6634 356.438 47.5359C354.116 46.4601 351.586 45.9016 349.025 45.8993C340.584 45.9148 333.316 51.8384 331.63 60.0789C331.389 61.277 330.217 62.0516 329.016 61.8095C327.569 61.5205 326.097 61.374 324.622 61.3722C312.369 61.3722 302.437 71.2692 302.437 83.4751C302.437 95.6828 312.369 105.579 324.622 105.579Z" fill="white" fill-opacity="0.28"/>
<g clip-path="url(#clip0_613_29348)">
<path d="M228.314 119.102C220.173 119.103 212.209 117.128 205.409 113.419C204.803 113.09 204.112 112.884 203.391 112.816C202.671 112.748 201.941 112.82 201.261 113.028C200.581 113.236 199.969 113.573 199.474 114.012C198.98 114.451 198.616 114.979 198.413 115.556C195.723 123.221 190.465 130.099 183.248 135.39C176.031 140.681 167.151 144.17 157.637 145.452C148.123 146.734 138.365 145.756 129.495 142.632C120.624 139.508 113.005 134.365 107.52 127.801C106.847 126.997 105.829 126.437 104.674 126.233C103.519 126.03 102.313 126.199 101.304 126.706C96.8741 128.942 91.8609 130.266 86.6856 130.564C81.5102 130.863 76.3239 130.128 71.5627 128.422C66.8014 126.716 62.6044 124.088 59.3245 120.759C56.0445 117.43 53.7776 113.498 52.7141 109.293C52.5807 108.765 52.3147 108.267 51.9334 107.83C51.5521 107.393 51.0641 107.028 50.5011 106.757C49.9365 106.489 49.3109 106.322 48.664 106.265C48.0171 106.208 47.3629 106.263 46.7431 106.427C42.7364 107.541 38.4761 107.886 34.2846 107.436C30.0931 106.986 26.0802 105.752 22.5494 103.828C19.0187 101.904 16.0626 99.3397 13.905 96.3299C11.7473 93.3201 10.4446 89.9432 10.0953 86.4549C9.74607 82.9666 10.3594 79.4582 11.889 76.1952C13.4186 72.9321 15.8243 69.9999 18.9242 67.6205C22.0241 65.2411 25.7368 63.4767 29.7815 62.4609C33.8263 61.4451 38.097 61.2044 42.2706 61.7572C42.8957 61.8395 43.5345 61.8137 44.147 61.6815C44.7594 61.5492 45.3321 61.3134 45.8291 60.9888C46.3289 60.664 46.7429 60.2578 47.0453 59.7951C47.3478 59.3325 47.5323 58.8233 47.5875 58.2992C48.2244 52.4711 50.6407 46.873 54.6093 42.0312C58.5779 37.1894 63.9683 33.2631 70.2736 30.6215C76.5789 27.9799 83.5919 26.7098 90.653 26.9307C97.7142 27.1515 104.591 28.8561 110.638 31.884C111.205 32.167 111.838 32.3462 112.495 32.4099C113.152 32.4735 113.818 32.42 114.448 32.253C115.078 32.086 115.658 31.8093 116.148 31.4415C116.639 31.0737 117.028 30.6233 117.291 30.1205C122.671 19.8027 132.098 11.2909 144.047 5.96337C155.996 0.635831 169.767 -1.19547 183.129 0.766006C196.491 2.72749 208.663 8.3669 217.673 16.771C226.683 25.1751 232.003 35.8519 232.773 47.0723C232.831 47.9206 233.226 48.7292 233.898 49.3716C234.569 50.014 235.479 50.4539 236.485 50.6225C246.632 52.3142 255.66 57.0672 261.815 63.9593C267.971 70.8515 270.815 79.3914 269.798 87.9224C268.78 96.4534 263.972 104.367 256.307 110.128C248.642 115.89 238.666 119.088 228.314 119.102Z" fill="#EFECFB"/>
<g filter="url(#filter0_f_613_29348)">
<path d="M205.409 113.419C212.209 117.127 220.173 119.103 228.314 119.102C238.666 119.088 248.642 115.889 256.307 110.128C263.972 104.367 268.78 96.4531 269.798 87.9222C270.815 79.3912 267.971 70.8513 261.815 63.9591C260.89 62.9234 259.9 61.936 258.851 61H258.5C258.5 61 242.382 71.9628 230.5 74C223.711 75.164 218.395 73.4965 213.051 71.82C207.854 70.1898 202.642 68.4811 196 69.5C185.366 71.1312 179.568 78.378 173.632 85.58C167.156 93.437 160.873 101.059 149.5 100.5C140.195 100.043 134.885 93.5995 129.596 87.1808C124.247 80.6896 118.885 74.0682 109.5 74C103.402 73.9557 99.1306 76.6445 94.8466 79.3966C90.3147 82.3079 85.8445 85.1796 79.5 84.5C72.2463 83.7231 68.348 78.6336 64.439 73.5304C60.5634 68.4706 54.7182 63.217 47.5409 62.3198C43.2966 61.7893 39.9967 61.5796 34.5 61.5C32.9201 61.6613 31.3141 62.0757 29.7815 62.4606C25.7368 63.4764 22.0241 65.2408 18.9242 67.6203C15.8243 69.9997 13.4186 72.9319 11.889 76.1949C10.3594 79.458 9.74607 82.9664 10.0953 86.4547C10.4446 89.943 11.7473 93.3198 13.905 96.3297C16.0626 99.3395 19.0187 101.903 22.5494 103.828C26.0802 105.752 30.0931 106.986 34.2846 107.436C38.4761 107.886 42.7364 107.541 46.7431 106.426C47.3629 106.263 48.0171 106.208 48.664 106.265C49.3109 106.322 49.9365 106.489 50.5011 106.757C51.0641 107.027 51.5521 107.393 51.9334 107.83C52.3147 108.267 52.5807 108.765 52.7141 109.293C53.7776 113.498 56.0445 117.43 59.3245 120.759C62.6044 124.088 66.8014 126.716 71.5627 128.422C76.3239 130.128 81.5102 130.863 86.6856 130.564C91.8609 130.266 96.8741 128.942 101.304 126.706C102.313 126.199 103.519 126.03 104.674 126.233C105.829 126.436 106.847 126.997 107.52 127.801C113.005 134.365 120.624 139.507 129.495 142.632C138.365 145.756 148.123 146.734 157.637 145.452C167.151 144.17 176.031 140.681 183.248 135.39C190.465 130.098 195.723 123.221 198.413 115.556C198.616 114.979 198.98 114.45 199.474 114.011C199.969 113.572 200.581 113.236 201.261 113.028C201.941 112.82 202.671 112.747 203.391 112.815C204.112 112.883 204.803 113.09 205.409 113.419Z" fill="url(#paint0_linear_613_29348)" fill-opacity="0.8"/>
</g>
</g>
<g clip-path="url(#clip1_613_29348)">
<path d="M465.314 267.102C457.173 267.103 449.209 265.128 442.409 261.419C441.803 261.09 441.112 260.884 440.391 260.816C439.671 260.748 438.941 260.82 438.261 261.028C437.581 261.236 436.969 261.573 436.474 262.012C435.98 262.451 435.616 262.979 435.413 263.556C432.723 271.221 427.465 278.099 420.248 283.39C413.031 288.681 404.151 292.17 394.637 293.452C385.123 294.734 375.365 293.756 366.495 290.632C357.624 287.508 350.005 282.365 344.52 275.801C343.847 274.997 342.829 274.437 341.674 274.233C340.519 274.03 339.313 274.199 338.304 274.706C333.874 276.942 328.861 278.266 323.686 278.564C318.51 278.863 313.324 278.128 308.563 276.422C303.801 274.716 299.604 272.088 296.325 268.759C293.045 265.43 290.778 261.498 289.714 257.293C289.581 256.765 289.315 256.267 288.933 255.83C288.552 255.393 288.064 255.028 287.501 254.757C286.937 254.489 286.311 254.322 285.664 254.265C285.017 254.208 284.363 254.263 283.743 254.427C279.736 255.541 275.476 255.886 271.285 255.436C267.093 254.986 263.08 253.752 259.549 251.828C256.019 249.904 253.063 247.34 250.905 244.33C248.747 241.32 247.445 237.943 247.095 234.455C246.746 230.967 247.359 227.458 248.889 224.195C250.419 220.932 252.824 218 255.924 215.62C259.024 213.241 262.737 211.477 266.782 210.461C270.826 209.445 275.097 209.204 279.271 209.757C279.896 209.839 280.535 209.814 281.147 209.681C281.759 209.549 282.332 209.313 282.829 208.989C283.329 208.664 283.743 208.258 284.045 207.795C284.348 207.333 284.532 206.823 284.588 206.299C285.224 200.471 287.641 194.873 291.609 190.031C295.578 185.189 300.968 181.263 307.274 178.621C313.579 175.98 320.592 174.71 327.653 174.931C334.714 175.151 341.591 176.856 347.638 179.884C348.205 180.167 348.838 180.346 349.495 180.41C350.152 180.474 350.818 180.42 351.448 180.253C352.078 180.086 352.658 179.809 353.148 179.441C353.639 179.074 354.028 178.623 354.291 178.12C359.671 167.803 369.098 159.291 381.047 153.963C392.996 148.636 406.767 146.805 420.129 148.766C433.491 150.727 445.663 156.367 454.673 164.771C463.683 173.175 469.003 183.852 469.773 195.072C469.831 195.921 470.226 196.729 470.898 197.372C471.569 198.014 472.479 198.454 473.485 198.623C483.632 200.314 492.66 205.067 498.815 211.959C504.971 218.852 507.815 227.391 506.798 235.922C505.78 244.453 500.972 252.367 493.307 258.128C485.642 263.89 475.666 267.088 465.314 267.102Z" fill="#EFECFB"/>
<g filter="url(#filter1_f_613_29348)">
<path d="M442.409 261.419C449.209 265.127 457.173 267.103 465.314 267.102C475.666 267.088 485.642 263.889 493.307 258.128C500.972 252.367 505.78 244.453 506.798 235.922C507.815 227.391 504.971 218.851 498.815 211.959C497.89 210.923 496.9 209.936 495.851 209H495.5C495.5 209 479.382 219.963 467.5 222C460.711 223.164 455.395 221.496 450.051 219.82C444.854 218.19 439.642 216.481 433 217.5C422.366 219.131 416.568 226.378 410.632 233.58C404.156 241.437 397.873 249.059 386.5 248.5C377.195 248.043 371.885 241.6 366.596 235.181C361.247 228.69 355.885 222.068 346.5 222C340.402 221.956 336.131 224.644 331.847 227.397C327.315 230.308 322.845 233.18 316.5 232.5C309.246 231.723 305.348 226.634 301.439 221.53C297.563 216.471 291.718 211.217 284.541 210.32C280.297 209.789 276.997 209.58 271.5 209.5C269.92 209.661 268.314 210.076 266.782 210.461C262.737 211.476 259.024 213.241 255.924 215.62C252.824 218 250.419 220.932 248.889 224.195C247.359 227.458 246.746 230.966 247.095 234.455C247.445 237.943 248.747 241.32 250.905 244.33C253.063 247.339 256.019 249.903 259.549 251.828C263.08 253.752 267.093 254.986 271.285 255.436C275.476 255.886 279.736 255.541 283.743 254.426C284.363 254.263 285.017 254.208 285.664 254.265C286.311 254.322 286.937 254.489 287.501 254.757C288.064 255.027 288.552 255.393 288.933 255.83C289.315 256.267 289.581 256.765 289.714 257.293C290.778 261.498 293.045 265.43 296.325 268.759C299.604 272.088 303.801 274.716 308.563 276.422C313.324 278.128 318.51 278.863 323.686 278.564C328.861 278.266 333.874 276.942 338.304 274.706C339.313 274.199 340.519 274.03 341.674 274.233C342.829 274.436 343.847 274.997 344.52 275.801C350.005 282.365 357.624 287.507 366.495 290.632C375.365 293.756 385.123 294.734 394.637 293.452C404.151 292.17 413.031 288.681 420.248 283.39C427.465 278.098 432.723 271.221 435.413 263.556C435.616 262.979 435.98 262.45 436.474 262.011C436.969 261.572 437.581 261.236 438.261 261.028C438.941 260.82 439.671 260.747 440.391 260.815C441.112 260.883 441.803 261.09 442.409 261.419Z" fill="url(#paint1_linear_613_29348)" fill-opacity="0.8"/>
</g>
</g>
<defs>
<filter id="filter0_f_613_29348" x="0" y="51" width="280" height="105" filterUnits="userSpaceOnUse" color-interpolation-filters="sRGB">
<feFlood flood-opacity="0" result="BackgroundImageFix"/>
<feBlend mode="normal" in="SourceGraphic" in2="BackgroundImageFix" result="shape"/>
<feGaussianBlur stdDeviation="5" result="effect1_foregroundBlur_613_29348"/>
</filter>
<filter id="filter1_f_613_29348" x="237" y="199" width="280" height="105" filterUnits="userSpaceOnUse" color-interpolation-filters="sRGB">
<feFlood flood-opacity="0" result="BackgroundImageFix"/>
<feBlend mode="normal" in="SourceGraphic" in2="BackgroundImageFix" result="shape"/>
<feGaussianBlur stdDeviation="5" result="effect1_foregroundBlur_613_29348"/>
</filter>
<linearGradient id="paint0_linear_613_29348" x1="140" y1="48.5" x2="140" y2="146" gradientUnits="userSpaceOnUse">
<stop stop-color="#FBE4FE" stop-opacity="0.3"/>
<stop offset="1" stop-color="#FBE4FE"/>
</linearGradient>
<linearGradient id="paint1_linear_613_29348" x1="377" y1="196.5" x2="377" y2="294" gradientUnits="userSpaceOnUse">
<stop stop-color="#FBE4FE" stop-opacity="0.3"/>
<stop offset="1" stop-color="#FBE4FE"/>
</linearGradient>
<clipPath id="clip0_613_29348">
<rect width="280" height="156" fill="white"/>
</clipPath>
<clipPath id="clip1_613_29348">
<rect width="280" height="156" fill="white" transform="translate(237 148)"/>
</clipPath>
</defs>
</svg>
