<svg width="267" height="258" viewBox="0 0 267 258" fill="none" xmlns="http://www.w3.org/2000/svg">
<g clip-path="url(#clip0_19_14851)">
<path d="M184.553 193.53L202.171 122.359L24.9712 38.4128L184.553 193.53Z" fill="#BDBDBD"/>
<path d="M148.327 137.227L126.687 155.057L184.553 193.53L148.327 137.227Z" fill="url(#paint0_linear_19_14851)"/>
<path opacity="0.4" d="M148.327 137.227L126.687 155.057L184.553 193.53L148.327 137.227Z" fill="url(#paint1_linear_19_14851)"/>
<path d="M184.553 193.53L202.171 122.359L24.9712 38.4128L184.553 193.53Z" fill="url(#paint2_linear_19_14851)"/>
<path d="M24.9712 38.4128L267 108.657L202.171 122.359L24.9712 38.4128Z" fill="#F6F6F6"/>
<path d="M77.4648 188.743L24.9712 38.4128L150.398 138.872L77.4648 188.743Z" fill="#F6F6F6"/>
<path d="M184.553 193.53L202.171 122.358L201 121.79L184.073 190.119L150.398 138.872L148.897 139.86L184.553 193.53Z" fill="white"/>
<g opacity="0.82">
<mask id="mask0_19_14851" style="mask-type:luminance" maskUnits="userSpaceOnUse" x="24" y="38" width="127" height="151">
<path d="M77.4648 188.743L24.9712 38.4128L150.398 138.872L77.4648 188.743Z" fill="white"/>
</mask>
<g mask="url(#mask0_19_14851)">
<path opacity="0.4" d="M58.076 140.787L121.585 110.751L131.039 119.876L64.529 151.258L58.076 140.787Z" fill="url(#paint3_linear_19_14851)"/>
</g>
</g>
<g opacity="0.82">
<mask id="mask1_19_14851" style="mask-type:luminance" maskUnits="userSpaceOnUse" x="24" y="38" width="243" height="85">
<path d="M24.9712 38.4128L267 108.657L202.171 122.359L24.9712 38.4128Z" fill="white"/>
</mask>
<g mask="url(#mask1_19_14851)">
<path opacity="0.4" d="M156.67 101.058L236.896 99.4724L243.319 112.845L159.342 114.431L156.67 101.058Z" fill="url(#paint4_linear_19_14851)"/>
</g>
</g>
<path opacity="0.6" d="M156.67 101.058L184.553 193.53L185.934 113.563L156.67 101.058Z" fill="url(#paint5_linear_19_14851)"/>
<path d="M201 121.79L267 108.657V110.482L201.751 124.094L201 121.79Z" fill="white"/>
<path d="M150.398 138.873L77.4648 188.743L78.5453 190.269L151.478 140.518L150.398 138.873Z" fill="white"/>
<path opacity="0.5" d="M24.9712 38.4128L202.171 122.359L201.751 124.094L25.2713 39.2804L24.9712 38.4128Z" fill="white"/>
<path opacity="0.36" d="M24.9712 38.4128L150.398 138.843L148.297 140.279L24.9712 39.9685C24.9712 39.9685 23.9508 38.4128 24.9712 38.4128Z" fill="white"/>
<path d="M120.204 220.724C117.443 219.737 118.523 219.707 120.204 220.724V220.724Z" fill="#FFD65C"/>
<path d="M109.789 216.895C107.028 215.907 108.109 215.848 109.789 216.895V216.895Z" fill="#FFD65C"/>
<path d="M87.0392 219.138C89.4402 218.989 91.8113 218.66 94.1824 218.271C98.2042 217.642 102.376 216.865 106.518 216.865C103.817 216.775 101.085 216.924 98.4143 217.313C94.0023 217.912 89.2902 219.168 84.6981 219.138C85.4785 219.168 86.2588 219.198 87.0392 219.138Z" fill="#FFD65C"/>
<path d="M79.5958 201.188C79.5057 199.693 70.7718 198.795 70.6818 197.419C71.132 204.27 71.8823 212.976 78.0651 217.254C81.7567 219.826 87.4593 222.01 91.9313 222.728C97.4538 223.626 103.396 221.861 108.829 221.113C112.1 220.664 115.342 220.485 118.643 220.754C118.733 220.754 118.823 220.784 118.913 220.784C119.544 220.844 120.174 220.933 120.804 221.053C120.984 221.173 121.134 221.322 121.315 221.472C128.968 227.934 127.497 240.439 129.508 249.264C130.048 251.628 130.979 253.931 132.45 255.816L140.253 257.94C140.193 257.82 140.133 257.731 140.073 257.611C138.092 253.961 137.702 249.444 137.222 245.405C136.141 236.49 135.091 226.797 125.967 222.549C125.006 222.1 124.016 221.651 123.025 221.203C122.965 221.173 122.905 221.143 122.815 221.113C121.825 220.664 120.804 220.245 119.784 219.826C119.724 219.796 119.664 219.767 119.604 219.767C118.583 219.348 117.533 218.959 116.482 218.6C116.452 218.6 116.392 218.57 116.362 218.57C114.802 218.031 113.241 217.583 111.65 217.283C105.888 216.147 99.8549 217.343 94.1523 218.241C91.7812 218.63 89.4102 218.959 87.0091 219.108C86.2287 219.168 85.4484 219.138 84.6681 219.108C80.4962 214.651 79.9859 206.753 79.5958 201.188Z" fill="#FFD65C"/>
<path d="M121.314 221.532C128.968 227.994 127.497 240.499 129.508 249.324C130.048 251.688 130.979 253.991 132.449 255.876L140.253 258C140.193 257.88 140.133 257.79 140.073 257.671C138.092 254.021 137.702 249.504 137.222 245.465C136.141 236.55 135.091 226.857 125.967 222.609C125.006 222.16 124.016 221.711 123.025 221.262C122.965 221.233 122.905 221.203 122.815 221.173C121.825 220.724 120.804 220.305 119.784 219.886C119.724 219.856 119.664 219.826 119.604 219.826C119.484 219.797 119.394 219.737 119.274 219.707C119.934 220.245 120.534 220.814 121.104 221.412C121.164 221.442 121.224 221.472 121.314 221.532Z" fill="#FFBB00"/>
<path d="M81.6067 213.753C80.166 209.655 79.8359 204.898 79.5958 201.188C79.5057 199.693 70.7718 198.795 70.6818 197.419C71.0419 202.894 71.6122 209.565 74.9737 214.232C75.694 214.262 76.4143 214.262 77.1046 214.232C78.6353 214.142 80.136 213.963 81.6067 213.753Z" fill="#FFD65C"/>
<path d="M82.0268 217.882C82.6271 217.972 83.2274 218.031 83.8276 218.061C82.8972 216.805 82.1769 215.339 81.6367 213.783C80.136 213.993 78.6653 214.172 77.1647 214.262C76.4443 214.292 75.724 214.292 75.0337 214.262C75.694 215.159 76.4743 215.997 77.3447 216.715C78.9354 217.224 80.5562 217.642 82.0268 217.882Z" fill="#FFD65C"/>
<path d="M70.6818 197.449C71.0719 203.342 71.7022 210.642 75.8441 215.279C76.5044 216.027 77.2247 216.685 78.0651 217.283C78.7554 217.762 79.5658 218.241 80.3761 218.689C80.7663 218.779 81.1265 218.839 81.4866 218.899C82.5371 219.078 83.6176 219.108 84.6981 219.108C83.5275 217.852 82.6571 216.326 81.9668 214.651C80.2261 210.373 79.8659 205.167 79.5958 201.158C79.5057 199.692 70.7718 198.825 70.6818 197.449Z" fill="#FFBB00"/>
<path d="M42.7992 225.331L30.1035 235.473L32.6547 209.924L42.7992 225.331Z" fill="#00B8CC"/>
<path d="M171.827 70.4235C171.827 70.4235 155.71 57.4099 158.261 32.7886C163.363 34.5237 169.276 33.2972 169.276 33.2972C169.276 33.2972 168.106 60.581 184.643 63.812C182.272 67.3721 171.827 70.4235 171.827 70.4235Z" fill="#00D08C"/>
<path d="M171.977 0C171.977 0 198.929 11.6076 204.872 46.1911C197.279 45.7723 189.655 49.6913 189.655 49.6913C189.655 49.6913 180.831 12.0264 157.061 13.9112C158.921 8.13729 171.977 0 171.977 0Z" fill="#FF63A0"/>
<path d="M211.745 70.4233C211.745 70.4233 202.261 77.2144 201.271 81.5224C208.564 80.3257 214.506 83.8858 219.008 88.5827L228.313 80.8343C220.179 72.9962 211.745 70.4233 211.745 70.4233Z" fill="#FFD65C"/>
<path d="M68.0406 224.224C68.0406 224.224 48.3217 206.723 50.7228 175.341C47.8715 175.251 44.45 174.862 41.2685 173.605C36.0762 208.279 58.0161 227.724 58.0161 227.724C58.0161 227.724 64.2589 226.199 69.6313 223.805C68.6409 224.075 68.0406 224.224 68.0406 224.224Z" fill="#FF63A0"/>
<path d="M48.2617 147.309C40.7283 149.343 32.6246 148.147 32.6246 148.147C32.6246 148.147 32.8647 153.352 30.7638 157.57C38.3572 159.186 44.9302 158.408 50.1525 156.792L48.2617 147.309Z" fill="#00B9BD"/>
<path d="M138.452 204.18C138.452 204.18 120.804 208.518 104.867 193.709C108.769 191.077 111.05 186.29 111.05 186.29C111.05 186.29 129.568 201.547 140.583 191.735C141.844 195.295 138.452 204.18 138.452 204.18Z" fill="#FFD65C"/>
<path d="M145.956 16.095C145.956 16.095 141.844 33.7457 121.375 41.1949C120.804 36.528 117.533 32.3396 117.533 32.3396C117.533 32.3396 139.563 22.7963 135.811 8.58594C139.533 9.03469 145.956 16.095 145.956 16.095Z" fill="#FFD65C"/>
<path d="M30.0135 190.478L18.5483 189.94L14.4965 200.65L11.4652 189.611L0 189.072L9.60432 182.79L6.57295 171.781L15.517 178.931L25.1213 172.648L21.0695 183.328L30.0135 190.478Z" fill="#00D08C"/>
<path d="M115.252 21.5099L107.328 21.1509L104.507 28.5402L102.436 20.9115L94.5125 20.5226L101.145 16.1847L99.0445 8.58594L105.227 13.5222L111.86 9.18427L109.069 16.5736L115.252 21.5099Z" fill="#FF63A0"/>
<path d="M19.5414 129.254L18.7555 141.196L23.7872 141.525L24.5731 129.583L19.5414 129.254Z" fill="#FFD65C"/>
</g>
<defs>
<linearGradient id="paint0_linear_19_14851" x1="173.091" y1="180.395" x2="131.604" y2="140.187" gradientUnits="userSpaceOnUse">
<stop stop-color="#DCDADB"/>
<stop offset="1" stop-color="#CCCCCC"/>
</linearGradient>
<linearGradient id="paint1_linear_19_14851" x1="130.079" y1="199.27" x2="171.263" y2="158.754" gradientUnits="userSpaceOnUse">
<stop offset="0.532" stop-color="white"/>
<stop offset="0.6952" stop-color="white" stop-opacity="0"/>
</linearGradient>
<linearGradient id="paint2_linear_19_14851" x1="181.32" y1="-6.20943" x2="87.8751" y2="143.891" gradientUnits="userSpaceOnUse">
<stop offset="0.3476" stop-color="white"/>
<stop offset="0.7839" stop-color="white" stop-opacity="0"/>
</linearGradient>
<linearGradient id="paint3_linear_19_14851" x1="87.8433" y1="117.761" x2="101.529" y2="143.636" gradientUnits="userSpaceOnUse">
<stop offset="0.1283" stop-color="#606060"/>
<stop offset="0.6374" stop-color="#E9E9E9" stop-opacity="0"/>
</linearGradient>
<linearGradient id="paint4_linear_19_14851" x1="197.017" y1="87.8028" x2="199.724" y2="119.97" gradientUnits="userSpaceOnUse">
<stop offset="0.1283" stop-color="#606060"/>
<stop offset="0.6374" stop-color="#E9E9E9" stop-opacity="0"/>
</linearGradient>
<linearGradient id="paint5_linear_19_14851" x1="162.647" y1="149.823" x2="204.422" y2="136.448" gradientUnits="userSpaceOnUse">
<stop offset="0.0167552" stop-color="#606060"/>
<stop offset="0.2688" stop-color="#606060" stop-opacity="0"/>
</linearGradient>
<clipPath id="clip0_19_14851">
<rect width="267" height="258" fill="white"/>
</clipPath>
</defs>
</svg>
